<svg xmlns="http://www.w3.org/2000/svg" xmlns:xlink="http://www.w3.org/1999/xlink" width="1225" zoomAndPan="magnify" viewBox="0 0 918.75 555.000006" height="740" preserveAspectRatio="xMidYMid meet" version="1.0"><defs><g/><clipPath id="480f48fc8f"><path d="M 0.703125 0 L 917.800781 0 L 917.800781 554 L 0.703125 554 Z M 0.703125 0 " clip-rule="nonzero"/></clipPath><clipPath id="f182cc5a07"><path d="M 0.703125 0.734375 L 696.652344 0.734375 L 696.652344 347 L 0.703125 347 Z M 0.703125 0.734375 " clip-rule="nonzero"/></clipPath><clipPath id="bcc27e38af"><rect x="0" width="697" y="0" height="347"/></clipPath><clipPath id="333b50a75b"><rect x="0" width="26" y="0" height="117"/></clipPath><clipPath id="8dc3851a9a"><rect x="0" width="25" y="0" height="117"/></clipPath><clipPath id="64c35359e5"><path d="M 200.414062 289.773438 L 499.382812 289.773438 L 499.382812 445.648438 L 200.414062 445.648438 Z M 200.414062 289.773438 " clip-rule="nonzero"/></clipPath><clipPath id="3991b6aa2b"><path d="M 200.9375 289.773438 C 200.9375 374.675781 268.878906 445.648438 350.160156 445.648438 C 431.4375 445.648438 499.382812 374.675781 499.382812 289.773438 L 416.523438 289.773438 C 416.523438 327.53125 386.308594 359.097656 350.160156 359.097656 C 314.011719 359.097656 283.792969 327.53125 283.792969 289.773438 Z M 200.9375 289.773438 " clip-rule="nonzero"/></clipPath><clipPath id="a01d9c5ecb"><path d="M 1 0.773438 L 299.382812 0.773438 L 299.382812 156.648438 L 1 156.648438 Z M 1 0.773438 " clip-rule="nonzero"/></clipPath><clipPath id="4e4b535bd4"><path d="M 0.9375 0.773438 C 0.9375 85.675781 68.878906 156.648438 150.160156 156.648438 C 231.4375 156.648438 299.382812 85.675781 299.382812 0.773438 L 216.523438 0.773438 C 216.523438 38.53125 186.308594 70.097656 150.160156 70.097656 C 114.011719 70.097656 83.792969 38.53125 83.792969 0.773438 Z M 0.9375 0.773438 " clip-rule="nonzero"/></clipPath><clipPath id="1deab9cc2c"><rect x="0" width="300" y="0" height="157"/></clipPath><clipPath id="0cd0e11cfe"><rect x="0" width="697" y="0" height="446"/></clipPath></defs><g clip-path="url(#480f48fc8f)"><path fill="#ffffff" d="M 0.703125 0 L 917.800781 0 L 917.800781 554 L 0.703125 554 Z M 0.703125 0 " fill-opacity="1" fill-rule="nonzero"/></g><g transform="matrix(1, 0, 0, 1, 109, 103)"><g clip-path="url(#0cd0e11cfe)"><g clip-path="url(#f182cc5a07)"><g transform="matrix(1, 0, 0, 1, -0.000000000000014211, 0.000000000000028422)"><g clip-path="url(#bcc27e38af)"><g fill="#1e1e1e" fill-opacity="1"><g transform="translate(0.936499, 257.986129)"><g><path d="M 17.328125 0 L 17.328125 -194.015625 L 85.234375 -194.015625 C 101.398438 -194.242188 115.832031 -192.679688 128.53125 -189.328125 C 141.238281 -185.984375 151.34375 -180.960938 158.84375 -174.265625 C 166.351562 -167.566406 170.109375 -159.253906 170.109375 -149.328125 C 170.109375 -135.234375 164.910156 -124.894531 154.515625 -118.3125 C 144.117188 -111.726562 130.953125 -107.515625 115.015625 -105.671875 C 123.097656 -104.742188 131.238281 -103.125 139.4375 -100.8125 C 147.644531 -98.507812 155.269531 -95.335938 162.3125 -91.296875 C 169.351562 -87.253906 175.007812 -82.113281 179.28125 -75.875 C 183.5625 -69.632812 185.703125 -62.242188 185.703125 -53.703125 C 185.703125 -42.847656 181.660156 -33.4375 173.578125 -25.46875 C 165.492188 -17.5 154.632812 -11.375 141 -7.09375 C 127.375 -2.820312 112.25 -0.457031 95.625 0 Z M 69.640625 -107.75 L 93.890625 -107.75 C 99.660156 -107.75 103.988281 -109.941406 106.875 -114.328125 C 109.769531 -118.710938 111.789062 -124.082031 112.9375 -130.4375 C 114.09375 -136.789062 114.671875 -142.738281 114.671875 -148.28125 C 114.671875 -160.519531 112.59375 -170.796875 108.4375 -179.109375 C 104.28125 -187.429688 97.003906 -191.59375 86.609375 -191.59375 L 69.640625 -191.59375 Z M 69.640625 -3.46875 L 88 -3.46875 C 103.007812 -3.46875 112.9375 -7.566406 117.78125 -15.765625 C 122.632812 -23.960938 125.0625 -36.144531 125.0625 -52.3125 C 125.0625 -70.09375 122.347656 -83.140625 116.921875 -91.453125 C 111.492188 -99.773438 101.046875 -103.9375 85.578125 -103.9375 L 69.640625 -103.9375 Z M 69.640625 -3.46875 "/></g></g></g><g fill="#1e1e1e" fill-opacity="1"><g transform="translate(184.551476, 257.986129)"><g><path d="M 85.234375 3.46875 C 71.140625 3.46875 58.316406 0.175781 46.765625 -6.40625 C 35.222656 -12.988281 25.984375 -21.9375 19.046875 -33.25 C 12.117188 -44.570312 8.65625 -57.046875 8.65625 -70.671875 C 8.65625 -84.304688 12.117188 -96.722656 19.046875 -107.921875 C 25.984375 -119.117188 35.222656 -128.007812 46.765625 -134.59375 C 58.316406 -141.175781 71.140625 -144.46875 85.234375 -144.46875 C 99.316406 -144.46875 112.128906 -141.175781 123.671875 -134.59375 C 135.222656 -128.007812 144.460938 -119.117188 151.390625 -107.921875 C 158.328125 -96.722656 161.796875 -84.304688 161.796875 -70.671875 C 161.796875 -57.046875 158.328125 -44.570312 151.390625 -33.25 C 144.460938 -21.9375 135.222656 -12.988281 123.671875 -6.40625 C 112.128906 0.175781 99.316406 3.46875 85.234375 3.46875 Z M 85.234375 0 C 91.691406 0 96.828125 -3.113281 100.640625 -9.34375 C 104.453125 -15.582031 107.164062 -24.015625 108.78125 -34.640625 C 110.40625 -45.265625 111.21875 -57.273438 111.21875 -70.671875 C 111.21875 -84.066406 110.289062 -96.078125 108.4375 -106.703125 C 106.59375 -117.328125 103.765625 -125.757812 99.953125 -132 C 96.140625 -138.238281 91.234375 -141.359375 85.234375 -141.359375 C 78.992188 -141.359375 73.96875 -138.238281 70.15625 -132 C 66.34375 -125.757812 63.570312 -117.328125 61.84375 -106.703125 C 60.113281 -96.078125 59.25 -84.066406 59.25 -70.671875 C 59.25 -57.273438 60.113281 -45.265625 61.84375 -34.640625 C 63.570312 -24.015625 66.34375 -15.582031 70.15625 -9.34375 C 73.96875 -3.113281 78.992188 0 85.234375 0 Z M 85.234375 0 "/></g></g></g><g fill="#1e1e1e" fill-opacity="1"><g transform="translate(344.261762, 257.986129)"><g><path d="M 85.234375 3.46875 C 71.140625 3.46875 58.316406 0.175781 46.765625 -6.40625 C 35.222656 -12.988281 25.984375 -21.9375 19.046875 -33.25 C 12.117188 -44.570312 8.65625 -57.046875 8.65625 -70.671875 C 8.65625 -84.304688 12.117188 -96.722656 19.046875 -107.921875 C 25.984375 -119.117188 35.222656 -128.007812 46.765625 -134.59375 C 58.316406 -141.175781 71.140625 -144.46875 85.234375 -144.46875 C 99.316406 -144.46875 112.128906 -141.175781 123.671875 -134.59375 C 135.222656 -128.007812 144.460938 -119.117188 151.390625 -107.921875 C 158.328125 -96.722656 161.796875 -84.304688 161.796875 -70.671875 C 161.796875 -57.046875 158.328125 -44.570312 151.390625 -33.25 C 144.460938 -21.9375 135.222656 -12.988281 123.671875 -6.40625 C 112.128906 0.175781 99.316406 3.46875 85.234375 3.46875 Z M 85.234375 0 C 91.691406 0 96.828125 -3.113281 100.640625 -9.34375 C 104.453125 -15.582031 107.164062 -24.015625 108.78125 -34.640625 C 110.40625 -45.265625 111.21875 -57.273438 111.21875 -70.671875 C 111.21875 -84.066406 110.289062 -96.078125 108.4375 -106.703125 C 106.59375 -117.328125 103.765625 -125.757812 99.953125 -132 C 96.140625 -138.238281 91.234375 -141.359375 85.234375 -141.359375 C 78.992188 -141.359375 73.96875 -138.238281 70.15625 -132 C 66.34375 -125.757812 63.570312 -117.328125 61.84375 -106.703125 C 60.113281 -96.078125 59.25 -84.066406 59.25 -70.671875 C 59.25 -57.273438 60.113281 -45.265625 61.84375 -34.640625 C 63.570312 -24.015625 66.34375 -15.582031 70.15625 -9.34375 C 73.96875 -3.113281 78.992188 0 85.234375 0 Z M 85.234375 0 "/></g></g></g><g fill="#1e1e1e" fill-opacity="1"><g transform="translate(503.972021, 257.986129)"><g><path d="M 17.328125 0 L 17.328125 -214.796875 L 67.90625 -214.796875 L 67.90625 -84.875 L 130.953125 -141.359375 L 135.8125 -141.359375 L 73.796875 -85.234375 C 80.492188 -89.160156 88.171875 -92.101562 96.828125 -94.0625 C 105.492188 -96.019531 113.40625 -95.960938 120.5625 -93.890625 C 129.34375 -91.347656 136.15625 -87.1875 141 -81.40625 C 145.851562 -75.632812 150.066406 -68.648438 153.640625 -60.453125 C 157.222656 -52.253906 161.328125 -43.421875 165.953125 -33.953125 C 171.265625 -23.328125 176.632812 -15.007812 182.0625 -9 C 187.488281 -3 190.203125 0 190.203125 0 C 190.203125 0 186.5625 0.398438 179.28125 1.203125 C 172.007812 2.015625 162.253906 1.613281 150.015625 0 C 138.234375 -1.613281 129.164062 -5.710938 122.8125 -12.296875 C 116.46875 -18.878906 111.5625 -27.078125 108.09375 -36.890625 C 104.625 -46.710938 101.273438 -57.050781 98.046875 -67.90625 C 96.429688 -73.445312 94.003906 -77.195312 90.765625 -79.15625 C 87.535156 -81.125 83.726562 -82.109375 79.34375 -82.109375 C 77.257812 -82.109375 75.234375 -81.816406 73.265625 -81.234375 C 71.304688 -80.660156 69.519531 -79.910156 67.90625 -78.984375 L 67.90625 0 Z M 17.328125 0 "/></g></g></g></g></g></g><g transform="matrix(1, 0, 0, 1, 313, 210)"><g clip-path="url(#333b50a75b)"><g fill="#1e1e1e" fill-opacity="1"><g transform="translate(0.692551, 86.714563)"><g><path d="M 13.859375 1.15625 C 11.628906 1.15625 9.722656 0.367188 8.140625 -1.203125 C 6.566406 -2.785156 5.78125 -4.695312 5.78125 -6.9375 C 5.78125 -9.164062 6.566406 -11.066406 8.140625 -12.640625 C 9.722656 -14.222656 11.628906 -15.015625 13.859375 -15.015625 C 16.097656 -15.015625 17.988281 -14.222656 19.53125 -12.640625 C 21.070312 -11.066406 21.84375 -9.164062 21.84375 -6.9375 C 21.84375 -4.695312 21.070312 -2.785156 19.53125 -1.203125 C 17.988281 0.367188 16.097656 1.15625 13.859375 1.15625 Z M 13.859375 1.15625 "/></g></g></g></g></g><g transform="matrix(1, 0, 0, 1, 358, 210)"><g clip-path="url(#8dc3851a9a)"><g fill="#1e1e1e" fill-opacity="1"><g transform="translate(0.245273, 86.714563)"><g><path d="M 13.859375 1.15625 C 11.628906 1.15625 9.722656 0.367188 8.140625 -1.203125 C 6.566406 -2.785156 5.78125 -4.695312 5.78125 -6.9375 C 5.78125 -9.164062 6.566406 -11.066406 8.140625 -12.640625 C 9.722656 -14.222656 11.628906 -15.015625 13.859375 -15.015625 C 16.097656 -15.015625 17.988281 -14.222656 19.53125 -12.640625 C 21.070312 -11.066406 21.84375 -9.164062 21.84375 -6.9375 C 21.84375 -4.695312 21.070312 -2.785156 19.53125 -1.203125 C 17.988281 0.367188 16.097656 1.15625 13.859375 1.15625 Z M 13.859375 1.15625 "/></g></g></g></g></g><g clip-path="url(#64c35359e5)"><g clip-path="url(#3991b6aa2b)"><g transform="matrix(1, 0, 0, 1, 200, 289)"><g clip-path="url(#1deab9cc2c)"><g clip-path="url(#a01d9c5ecb)"><g clip-path="url(#4e4b535bd4)"><path fill="#1e1e1e" d="M 299.382812 156.648438 L 1.023438 156.648438 L 1.023438 0.773438 L 299.382812 0.773438 Z M 299.382812 156.648438 " fill-opacity="1" fill-rule="nonzero"/></g></g></g></g></g></g></g></g></svg>